<svg width="135" height="2" fill="none" xmlns="http://www.w3.org/2000/svg"><g opacity=".45"><path id="Vector" d="M3 0h2v2H3V0Z" fill="#05C2DF" fill-opacity="1" fill-rule="evenodd"/></g><g opacity=".45"><path id="Vector" d="M0 0h2v2H0V0Z" fill="#05C2DF" fill-opacity="1" fill-rule="evenodd"/></g><g opacity=".45"><path id="Vector" d="M6 0h2v2H6V0Z" fill="#05C2DF" fill-opacity="1" fill-rule="evenodd"/></g><g opacity=".45"><path id="Vector" d="M9 0h2v2H9V0Z" fill="#05C2DF" fill-opacity="1" fill-rule="evenodd"/></g><g opacity=".45"><path id="Vector" d="M12 0h2v2h-2V0Z" fill="#05C2DF" fill-opacity="1" fill-rule="evenodd"/></g><g opacity=".45"><path id="Vector" d="M16 0h2v2h-2V0Z" fill="#05C2DF" fill-opacity="1" fill-rule="evenodd"/></g><g opacity=".45"><path id="Vector" d="M20 0h2v2h-2V0Z" fill="#05C2DF" fill-opacity="1" fill-rule="evenodd"/></g><g opacity=".45"><path id="Vector" d="M24 0h2v2h-2V0Z" fill="#05C2DF" fill-opacity="1" fill-rule="evenodd"/></g><g opacity=".45"><path id="Vector" d="M29 0h2v2h-2V0Z" fill="#05C2DF" fill-opacity="1" fill-rule="evenodd"/></g><g opacity=".45"><path id="Vector" d="M34 0h2v2h-2V0Z" fill="#05C2DF" fill-opacity="1" fill-rule="evenodd"/></g><g opacity=".45"><path id="Vector" d="M39 0h2v2h-2V0Z" fill="#05C2DF" fill-opacity="1" fill-rule="evenodd"/></g><g opacity=".45"><path id="Vector" d="M44 0h2v2h-2V0Z" fill="#05C2DF" fill-opacity="1" fill-rule="evenodd"/></g><g opacity=".45"><path id="Vector" d="M49 0h2v2h-2V0Z" fill="#05C2DF" fill-opacity="1" fill-rule="evenodd"/></g><g opacity=".45"><path id="Vector" d="M54 0h2v2h-2V0Z" fill="#05C2DF" fill-opacity="1" fill-rule="evenodd"/></g><g opacity=".45"><path id="Vector" d="M66 .23h1.6v1.6H66V.23Z" fill="#05C2DF" fill-opacity="1" fill-rule="evenodd"/></g><g opacity=".45"><path id="Vector" d="M72 .23h1.6v1.6H72V.23Z" fill="#05C2DF" fill-opacity="1" fill-rule="evenodd"/></g><g opacity=".45"><path id="Vector" d="M78 .23h1.6v1.6H78V.23Z" fill="#05C2DF" fill-opacity="1" fill-rule="evenodd"/></g><g opacity=".45"><path id="Vector" d="M84 .43h1.3v1.3H84V.43Z" fill="#05C2DF" fill-opacity="1" fill-rule="evenodd"/></g><g opacity=".45"><path id="Vector" d="M91 .43h1.3v1.3H91V.43Z" fill="#05C2DF" fill-opacity="1" fill-rule="evenodd"/></g><g opacity=".45"><path id="Vector" d="M98 .43h1.3v1.3H98V.43Z" fill="#05C2DF" fill-opacity="1" fill-rule="evenodd"/></g><g opacity=".45"><path id="Vector" d="M105 .43h1.3v1.3H105V.43Z" fill="#05C2DF" fill-opacity="1" fill-rule="evenodd"/></g><g opacity=".45"><path id="Vector" d="M113 .43h1.3v1.3H113V.43Z" fill="#05C2DF" fill-opacity="1" fill-rule="evenodd"/></g><g opacity=".45"><path id="Vector" d="M122 .43h1.3v1.3H122V.43Z" fill="#05C2DF" fill-opacity="1" fill-rule="evenodd"/></g><g opacity=".45"><path id="Vector" d="M60 .23h1.6v1.6H60V.23Z" fill="#05C2DF" fill-opacity="1" fill-rule="evenodd"/></g><g opacity=".45"><path id="Vector" d="M134 .5h1v1h-1v-1Z" fill="#05C2DF" fill-opacity="1" fill-rule="evenodd"/></g></svg>