<svg width="60.943" height="68.059" fill="none" xmlns="http://www.w3.org/2000/svg"><g opacity=".45"><path id="Vector" d="M51 6.054c-4.88-3.41-10.086-4.648-16-5-5.914-.352-11.44 1.004-16.679 3.812a32.7 32.7 0 0 0-12.676 12.18A33.409 33.409 0 0 0 1 34.135 33.404 33.404 0 0 0 5.727 51.2 32.69 32.69 0 0 0 18.46 63.317a32.034 32.034 0 0 0 17.066 3.671C41.44 66.607 47.135 64.49 52 61.054" stroke="#05C2DF" stroke-opacity="1" stroke-width="2"/></g><path id="Vector" d="M34.03 60.21c-14.587 0-26.412-11.79-26.412-26.335C7.618 19.33 19.443 7.54 34.031 7.54c14.587 0 26.412 11.79 26.412 26.335 0 14.544-11.825 26.335-26.412 26.335Z" stroke="#05C2DF" stroke-opacity="1" stroke-width="1"/><path id="Polygon" d="M45 34.054 27.75 23.662v20.785L45 34.054Z" fill="#05C2DF" fill-opacity="1" fill-rule="evenodd"/></svg>