<svg width="89" height="80.909" fill="none" xmlns="http://www.w3.org/2000/svg"><rect id="Rectangle 8" x="2.081" y="1.936" rx="4" width="85.367" height="60.28" stroke="#05C2DF" stroke-opacity="1" stroke-width="1"/><path id="Line" stroke="#05C2DF" stroke-opacity="1" stroke-width="1" d="M1.581 52.163h86.367"/><path id="Line 2" d="M40.021 57.429h8.953" stroke="#05C2DF" stroke-opacity="1" stroke-width="1" stroke-linecap="round"/><path id="Rectangle 9" stroke="#05C2DF" stroke-opacity="1" stroke-width="1" d="M27.355 62.738h34.284v5.224H27.355z"/><path id="Rectangle 9.2" stroke="#05C2DF" stroke-opacity="1" stroke-width="1" d="M16.823 74.228h55.349v5.224H16.823z"/><path id="Rectangle 9.1" d="M61.867 68.983H27.129l-7.148 4.224h49.034l-7.148-4.224Zm9.113 4.224 1.693 1h-56.35l10.533-6.224H62.14l8.84 5.224Z" fill="#05C2DF" fill-opacity="1" fill-rule="evenodd"/><path id="VR" d="M24.31 13.795h.773l8 22.367h.086l8-22.367h.773l-8.313 23.273h-1l-8.32-23.273Zm23.047 23.273h-.735V13.795h6.82c3.915 0 6.68 2.648 6.68 6.64 0 3.18-1.78 5.5-4.5 6.29l5.594 10.343h-.82l-5.5-10.172a8.75 8.75 0 0 1-1.453.125h-6.086v10.047Zm0-22.547v11.774h6.086c3.492 0 5.953-2.32 5.953-5.86 0-3.57-2.461-5.914-5.953-5.914h-6.086Z" fill="#05C2DF" fill-opacity="1" fill-rule="evenodd"/></svg>